<?xml version="1.0" encoding="UTF-8"?>
<svg id="Layer_2" data-name="Layer 2" xmlns="http://www.w3.org/2000/svg" width="464.19" height="464.19" viewBox="0 0 464.19 464.19">
  <defs>
    <style>
      .cls-1 {
        fill: none;
      }

      .cls-2 {
        fill: #1f5560;
      }
    </style>
  </defs>
  <g id="Layer_1" data-name="Layer 1">
    <rect class="cls-1" width="464.19" height="464.19"/>
    <g>
      <path class="cls-2" d="M232.05,236.53l.96.56-3.31,11.11c-.72,2.4-1.15,4.5-2.27,6.83-1.22,2.55-2.11,5.58-2.81,8.37l-1.06,4.26-2.2,6.14-1.5,2.99-2.61,6.35c-1.16,2.81-2.32,5.37-4.35,7.69l-.71,2.22-4.72,6.92-1.97,2.93c-1.54,2.41-3.62,4.32-5.88,6.13-.74,2.71-2.47,4.84-4.65,6.48l-2.21,3.46-3.28,3.56-3.66,3.29c-2.33,2.82-4.67,5.02-8.34,5.69-.55.75-1.45,1.38-2.28,1.85-3.87,2.19-6.47,3.03-11.09,2.72l-8.76-.58h-3.06c-2.02-1.33-3.8-.83-3.78-1.22l.04-.73c.02-.36.16-1.44-.19-1.41l-1.78.11c-.01-.72-.99-2.29-1.87-1.63-.21.92,1.38,2.24,2.2,2.4.22.04.24.92.02.88l-2.33-.37c-3.75-1.72-7.27-3.82-10.36-6.43l-7.28-8.88-1.32-2.09-1.25-2.12-2.4-4.72c-.41-.38-1.58-1.05-1.87-1.58l-2.25-4.01-1.37-2.1-2.29-4.33c-.59-.51-2.05-1.53-2.37-2.24l-2.35-5.17c-.56-1.23,1.58-1.34,1.04-2.61-.14-.33-.79-.34-1.44-.33-.38-.06-.95-.96-1.08-1.43-.26-.95.76-1.3,1.12-2.83.16-.67-1.95-.64-1.7-1.42.09-.27.43-.79.65-.96.28-.21.82.58,1.28,1.1.44.06.42-1.19.04-1.73-.4-.57-1.1-.6-2.18-.15l-1.15-2.25c.4-.85.5-1.58.16-2.29l-1.92-3.94c-.77-1.58-1.2-3.46-1.39-5.31l-1.24-11.91-.8-10.07.08-4.04.13-4.9-.18-4.82-.05-2.26.18-8.55.39-8.26-.08-2.28.05-2.98.37-4.89.34-4.5.65-5.78,1.21-7.02,1.09-5.67,1.61-5.22,3.64-11.71,1.73-6.6c.27-1.01,1.03-1.84,1.15-2.95l.38-3.65c1.24-1.16,1.58-2.18,1.14-3.81l1.68-4.31c.38-.97.92-1.41,1.94-1.98l-.87-.2c-.14-.03-.2-.26-.1-.33l.6-.41c.28-.19,1.24-.66,1.09-.96l-.68-1.44,4.83-12.23,1.16-2.81,1.26-3.36,1.47-4.1,1.15-2.97,1.43-3.1,1.8-3.73,1.95-4.13,1.37-2.33,3.2-7.02,6.25-11.73,5.85-9.12c2.8-4.36,5.21-8.58,8.56-12.53l6.7-7.89c2.86-3.37,6.38-5.9,10.03-8.38l2.92-1.98c2.2-1.49,4.23-3.4,6.75-4.43l10.1-4.14,5.34-1.69,4.09-.66,3.08-.24c2.08-.16,4.3.47,6.37.95l5.94,1.37c4.09.95,7.97,3.29,11.4,5.73l2.72,1.93c1.21.86,2.74,2.73,3.56,4.06,3.05,4.9.32,9.92.66,13.25.4,3.88-.73,7.1-1.58,10.74l-1.35,5.79c-.42,1.81-1.9,2.52-2.89,3.94-2.24,3.22-5.16,6.11-9.63,5.87l-4.14-.23c-2.49-.14-4.16-4.41-6.6-4.63-1.21-.11-2.05-.32-2.62-1.12-.87-1.22-.05-3.98,1.33-4.56.5-.21,1.52.67,1.86,1.18l3.03,4.52c1.39,2.08,4.31,3.07,6.58,2.32,6.12-2.03,9.82-7.51,10.24-13.75l.3-4.37.16-3.04.35-5.65.68-3.52c.21-1.08-.76-3.24-1.5-4.05l-3.86-4.21c-1.94-2.12-4.95-3.4-7.46-4.83l-3.61-2.06-3.63-.08c-1.93-.04-3.86-.55-5.56.1l-4.14,1.6c-3.08,1.19-5.47,3.7-7.91,5.87-1.85,1.65-4.15,2.72-6.38,3.75-.43.99-1.04,2.39-1.71,3.06l-2.68,2.68-3.56,3.56c-2.48,2.48-4.45,5.1-6.12,8.15-1.92,3.51-5.01,5.73-6.3,8.95l-2.49,6.23-2.47,6.16-1.83,4.15-2.38,7.02-2.66,8.23-4.44,15.44-2.2,9.31-1.46,7.56-1.05,4.22-3.2,14.41-2.15,7.55-1.86,7.99-1.06,4.83c-.48,2.19-1.13,3.88-2.09,6.01l-.33,5.03c-.08,1.26.03,2.19-.18,3.33l-1.3,6.88-.8,6.78-.25,2.96v5.25s-.17,4.45-.17,4.45l-.22,5.6-.16,3.03c-.75,1.86-.47,3.79.04,5.47l-.02,8.39c0,1.24-.09,2,.05,3.23l.82,7.4,1.42,13.59,1.51,6.02,4.32,14.8,2.48,8.37.95,2.88,3.87,9.72c1.08,2.71,1.92,5.6,3.46,8.12.96,1.58,2.89,2.72,4.13,4.11l4.01,4.47c1.07.49,1.77.99,2.01,2.32l5.51,3.5c.87.55,2.48.1,3.36-.15.85.53,2,1.12,2.97.85l-.46-2.2,5.63-2.97c1.77-.93,5.72-4.7,7.42-6.86l3.96-5.01,3.75-4.13,3.94-4.35,5.31-5.94,4.91-7.04c2.78-3.98,5.13-8.38,6.95-12.84l3.29-8.02,1.22-3.64,2.37-5.53,1.73-5.47c1.6-3.08,2.77-5.97,3.85-9.23.54-1.63,1.35-3.04,2.35-4.67ZM154.22,89.64l2.68-5.53c-2.41-.28-2.22,2.1-2.88,3.34l-1.08,1.4c-.25.32,1.09,1.18,1.28.78ZM154.08,91.21c-.96.14-1.73.44-1.92.74l-.83,1.33c-.15.24.44.81.72,1.03l2.02-3.11ZM151.51,98.84l1.04-3.01c-.48-.1-1.33-.16-1.46.12l-.45,1.01c-.15.33-.35,1.17-.42,1.56-.07.36,1.15.73,1.29.33ZM136.16,103.26l.07-1.17c.01-.2-.66-.49-.78-.32l-.61.83c-.37.5-.81,1.82-.74,2.37,1.09.58,2-.71,2.06-1.71ZM136.33,111.41l.65-3.79c.16-.16.56-.54.43-.67-.09-.09-.45-.35-.5-.36s-.2.49-.28.62l-1.44,2.41c-.34.76-.59,2.22-.77,3.32l1.58-.08c.32-.02.26-1.12.32-1.45ZM130.55,116.31c1.86-1.22,2.23-3.07,1.72-4.98l.76-1.16c.15-.23-.91-.58-1.13-.55l-.55,2.09c-1.34.57-2.3,1.69-2.68,3.06l1.88,1.54ZM130.94,120.58c.04-1.23-.54-1.66-1.52-2.34l-1.41,1.44,2.93.91ZM141.23,129.52c.21-.38.61-1.42.27-1.57-.28-.12-1.03-.33-1.4-.38-.41-.05-1.39.64-1.47,1.05-.15.76,1.8,2.37,1.98,2.03l.62-1.13ZM135.37,134.31c.22.28.82-.99.66-1.34l-1.07-2.4-2.91.91,1.29,2.04c.5-.19,1.02-.44,1.19-.23l.83,1.02ZM132.15,138.67c-.23-.3-.66-.71-.93-.91s-1.26.27-1.32.6l-.25,1.4c-.11.62,3.08-.35,2.5-1.09ZM131.09,144.12c-.09-.86-.32-1.57-.12-1.83l.9-1.14c-.52-.09-1.72-.04-1.9.35l-.65,1.4,1.76,1.22ZM117.48,184.46l.63-1.96c.11-.34.19-1.2.18-1.55s-1.47-.03-1.5.3l-.13,1.35c-.17.18-.75,1.11-.44,1.26l1.26.59ZM114.04,290.61l1.97-2.32c.25-.29-1.07-1.34-1.2-.99l-.53,1.33c-.12.31-.55.83-.85.72l-1.23-.46c-.67.62,1.31,2.35,1.84,1.73ZM116.91,292.91l.71-1.54c-.34.04-1.31.49-1.34.84l-.1,1.52c-.06.99-.29,3.05,1.58,2.98,1.68-.06-1.16-3.16-.86-3.8ZM140.35,299.67c1.42-1.67-.57-2.2-.92-2.88-.5-.98-1.39-2.27-2.65-1.65-.55.27.67,1.49,1.08,1.93l2.48,2.6ZM122.4,302.02c-1.6-1.47-1.02-2.53-2.34-3.84-.21-.2-1.33.29-1.24.57l.75,2.3,1.33,4.24,1.5-3.28ZM122.95,305.53l2.11-1.03c.23-.11.49-.59.54-.83s-.6-.78-.78-.62l-1.49,1.27c-.28.24-.99.54-.8.75.15.17.62.69.42.47ZM128.53,307.3c.41-.08.17-1.31-.08-1.6-.21-.24-.84-.7-1.12-.5-.46.32-.99.79-1.16,1.12s.34,1.36.71,1.29l1.64-.31ZM140.67,320.98l.69-.78c.15-.17-.51-.83-.69-.69l-.87.66c-.42.32-.84,1.5-.56,1.92s1.04,1.18,1.27,1.3l-.32-1.75c-.04-.2.25-.41.48-.67ZM154.59,323.62c.17-.27.49-1.36.23-1.54l-1.04-.7-.73,2.83c-.08.24.58.94.73.7l.81-1.29ZM162.37,328.41c.3.28,1.15-.38,1.07-.77-.25-1.32-1.39-.35-3.22-1.88-.17-.14-.86.2-.73.39.64,1,1.03.56,2.88,2.25ZM173.26,328.85c-1.96.5-3.03-1.1-5.29-.4,1.83,2.19,4.53,1.63,6.63,1,.01-.36,0-.94-.16-.9l-1.18.3Z"/>
      <path class="cls-2" d="M342.17,339.87l.96.56-3.31,11.11c-.72,2.4-1.15,4.5-2.27,6.83-1.22,2.55-2.11,5.58-2.81,8.37l-1.06,4.26-2.2,6.14-1.5,2.99-2.61,6.35c-1.16,2.81-2.32,5.37-4.35,7.69l-.71,2.22-4.72,6.92-1.97,2.93c-1.54,2.41-3.62,4.32-5.88,6.13-.74,2.71-2.47,4.84-4.65,6.48l-2.21,3.46-3.28,3.56-3.66,3.29c-2.33,2.82-4.67,5.02-8.34,5.69-.55.75-1.45,1.38-2.28,1.85-3.87,2.19-6.47,3.03-11.09,2.72l-8.76-.58h-3.06c-2.02-1.33-3.8-.83-3.78-1.22l.04-.73c.02-.36.16-1.44-.19-1.41l-1.78.11c-.01-.72-.99-2.29-1.87-1.63-.21.92,1.38,2.24,2.2,2.4.22.04.24.92.02.88l-2.33-.37c-3.75-1.72-7.27-3.82-10.36-6.43l-7.28-8.88-1.32-2.09-1.25-2.12-2.4-4.72c-.41-.38-1.58-1.05-1.87-1.58l-2.25-4.01-1.37-2.1-2.29-4.33c-.59-.51-2.05-1.53-2.37-2.24l-2.35-5.17c-.56-1.23,1.58-1.34,1.04-2.61-.14-.33-.79-.34-1.44-.33-.38-.06-.95-.96-1.08-1.43-.26-.95.76-1.3,1.12-2.83.16-.67-1.95-.64-1.7-1.42.09-.27.43-.79.65-.96.28-.21.82.58,1.28,1.1.44.06.42-1.19.04-1.73-.4-.57-1.1-.6-2.18-.15l-1.15-2.25c.4-.85.5-1.58.16-2.29l-1.92-3.94c-.77-1.58-1.2-3.46-1.39-5.31l-1.24-11.91-.8-10.07.08-4.04.13-4.9-.18-4.82-.05-2.26.18-8.55.39-8.26-.08-2.28.05-2.98.37-4.89.34-4.5.65-5.78,1.21-7.02,1.09-5.67,1.61-5.22,3.64-11.71,1.73-6.6c.27-1.01,1.03-1.84,1.15-2.95l.38-3.65c1.24-1.16,1.58-2.18,1.14-3.81l1.68-4.31c.38-.97.92-1.41,1.94-1.98l-.87-.2c-.14-.03-.2-.26-.1-.33l.6-.41c.28-.19,1.24-.66,1.09-.96l-.68-1.44,4.83-12.23,1.16-2.81,1.26-3.36,1.47-4.1,1.15-2.97,1.43-3.1,1.8-3.73,1.95-4.13,1.37-2.33,3.2-7.02,6.25-11.73,5.85-9.12c2.8-4.36,5.21-8.58,8.56-12.53l6.7-7.89c2.86-3.37,6.38-5.9,10.03-8.38l2.92-1.98c2.2-1.49,4.23-3.4,6.75-4.43l10.1-4.14,5.34-1.69,4.09-.66,3.08-.24c2.08-.16,4.3.47,6.37.95l5.94,1.37c4.09.95,7.97,3.29,11.4,5.73l2.72,1.93c1.21.86,2.74,2.73,3.56,4.06,3.05,4.9.32,9.92.66,13.25.4,3.88-.73,7.1-1.58,10.74l-1.35,5.79c-.42,1.81-1.9,2.52-2.89,3.94-2.24,3.22-5.16,6.11-9.63,5.87l-4.14-.23c-2.49-.14-4.16-4.41-6.6-4.63-1.21-.11-2.05-.32-2.62-1.12-.87-1.22-.05-3.98,1.33-4.56.5-.21,1.52.67,1.86,1.18l3.03,4.52c1.39,2.08,4.31,3.07,6.58,2.32,6.12-2.03,9.82-7.51,10.24-13.75l.3-4.37.16-3.04.35-5.65.68-3.52c.21-1.08-.76-3.24-1.5-4.05l-3.86-4.21c-1.94-2.12-4.95-3.4-7.46-4.83l-3.61-2.06-3.63-.08c-1.93-.04-3.86-.55-5.56.1l-4.14,1.6c-3.08,1.19-5.47,3.7-7.91,5.87-1.85,1.65-4.15,2.72-6.38,3.75-.43.99-1.04,2.39-1.71,3.06l-2.68,2.68-3.56,3.56c-2.48,2.48-4.45,5.1-6.12,8.15-1.92,3.51-5.01,5.73-6.3,8.95l-2.49,6.23-2.47,6.16-1.83,4.15-2.38,7.02-2.66,8.23-4.44,15.44-2.2,9.31-1.46,7.56-1.05,4.22-3.2,14.41-2.15,7.55-1.86,7.99-1.06,4.83c-.48,2.19-1.13,3.88-2.09,6.01l-.33,5.03c-.08,1.26.03,2.19-.18,3.33l-1.3,6.88-.8,6.78-.25,2.96v5.25s-.17,4.45-.17,4.45l-.22,5.6-.16,3.03c-.75,1.86-.47,3.79.04,5.47l-.02,8.39c0,1.24-.09,2,.05,3.23l.82,7.4,1.42,13.59,1.51,6.02,4.32,14.8,2.48,8.37.95,2.88,3.87,9.72c1.08,2.71,1.92,5.6,3.46,8.12.96,1.58,2.89,2.72,4.13,4.11l4.01,4.47c1.07.49,1.77.99,2.01,2.32l5.51,3.5c.87.55,2.48.1,3.36-.15.85.53,2,1.12,2.97.85l-.46-2.2,5.63-2.97c1.77-.93,5.72-4.7,7.42-6.86l3.96-5.01,3.75-4.13,3.94-4.35,5.31-5.94,4.91-7.04c2.78-3.98,5.13-8.38,6.95-12.84l3.29-8.02,1.22-3.64,2.37-5.53,1.73-5.47c1.6-3.08,2.77-5.97,3.85-9.23.54-1.63,1.35-3.04,2.35-4.67ZM264.34,192.98l2.68-5.53c-2.41-.28-2.22,2.1-2.88,3.34l-1.08,1.4c-.25.32,1.09,1.18,1.28.78ZM264.2,194.55c-.96.14-1.73.44-1.92.74l-.83,1.33c-.15.24.44.81.72,1.03l2.02-3.11ZM261.63,202.18l1.04-3.01c-.48-.1-1.33-.16-1.46.12l-.45,1.01c-.15.33-.35,1.17-.42,1.56-.07.36,1.15.73,1.29.33ZM246.28,206.6l.07-1.17c.01-.2-.66-.49-.78-.32l-.61.83c-.37.5-.81,1.82-.74,2.37,1.09.58,2-.71,2.06-1.71ZM246.45,214.75l.65-3.79c.16-.16.56-.54.43-.67-.09-.09-.45-.35-.5-.36s-.2.49-.28.62l-1.44,2.41c-.34.76-.59,2.22-.77,3.32l1.58-.08c.32-.02.26-1.12.32-1.45ZM240.67,219.66c1.86-1.22,2.23-3.07,1.72-4.98l.76-1.16c.15-.23-.91-.58-1.13-.55l-.55,2.09c-1.34.57-2.3,1.69-2.68,3.06l1.88,1.54ZM241.06,223.92c.04-1.23-.54-1.66-1.52-2.34l-1.41,1.44,2.93.91ZM251.35,232.86c.21-.38.61-1.42.27-1.57-.28-.12-1.03-.33-1.4-.38-.41-.05-1.39.64-1.47,1.05-.15.76,1.8,2.37,1.98,2.03l.62-1.13ZM245.48,237.65c.22.28.82-.99.66-1.34l-1.07-2.4-2.91.91,1.29,2.04c.5-.19,1.02-.44,1.19-.23l.83,1.02ZM242.26,242.01c-.23-.3-.66-.71-.93-.91s-1.26.27-1.32.6l-.25,1.4c-.11.62,3.08-.35,2.5-1.09ZM241.21,247.46c-.09-.86-.32-1.57-.12-1.83l.9-1.14c-.52-.09-1.72-.04-1.9.35l-.65,1.4,1.76,1.22ZM227.6,287.8l.63-1.96c.11-.34.19-1.2.18-1.55s-1.47-.03-1.5.3l-.13,1.35c-.17.18-.75,1.11-.44,1.26l1.26.59ZM224.16,393.95l1.97-2.32c.25-.29-1.07-1.34-1.2-.99l-.53,1.33c-.12.31-.55.83-.85.72l-1.23-.46c-.67.62,1.31,2.35,1.84,1.73ZM227.03,396.26l.71-1.54c-.34.04-1.31.49-1.34.84l-.1,1.52c-.06.99-.29,3.05,1.58,2.98,1.68-.06-1.16-3.16-.86-3.8ZM250.46,403.01c1.42-1.67-.57-2.2-.92-2.88-.5-.98-1.39-2.27-2.65-1.65-.55.27.67,1.49,1.08,1.93l2.48,2.6ZM232.52,405.36c-1.6-1.47-1.02-2.53-2.34-3.84-.21-.2-1.33.29-1.24.57l.75,2.3,1.33,4.24,1.5-3.28ZM233.07,408.87l2.11-1.03c.23-.11.49-.59.54-.83s-.6-.78-.78-.62l-1.49,1.27c-.28.24-.99.54-.8.75.15.17.62.69.42.47ZM238.64,410.64c.41-.08.17-1.31-.08-1.6-.21-.24-.84-.7-1.12-.5-.46.32-.99.79-1.16,1.12s.34,1.36.71,1.29l1.64-.31ZM250.79,424.32l.69-.78c.15-.17-.51-.83-.69-.69l-.87.66c-.42.32-.84,1.5-.56,1.92s1.04,1.18,1.27,1.3l-.32-1.75c-.04-.2.25-.41.48-.67ZM264.7,426.96c.17-.27.49-1.36.23-1.54l-1.04-.7-.73,2.83c-.08.24.58.94.73.7l.81-1.29ZM272.49,431.75c.3.28,1.15-.38,1.07-.77-.25-1.32-1.39-.35-3.22-1.88-.17-.14-.86.2-.73.39.64,1,1.03.56,2.88,2.25ZM283.38,432.19c-1.96.5-3.03-1.1-5.29-.4,1.83,2.19,4.53,1.63,6.63,1,.01-.36,0-.94-.16-.9l-1.18.3Z"/>
    </g>
  </g>
</svg>